<svg class="svgicon svgicon-add" xmlns="http://www.w3.org/2000/svg" width="14" height="16" width="14" height="13" viewBox="0 0 14 13"><path fill-rule="evenodd" clip-rule="evenodd" d="M8.07232 7.22222V12.2778C8.07232 12.4693 7.99623 12.653 7.86079 12.7885C7.72534 12.9239 7.54164 13 7.3501 13C7.15855 13 6.97485 12.9239 6.83941 12.7885C6.70397 12.653 6.62788 12.4693 6.62788 12.2778V7.22222H1.57232C1.38077 7.22222 1.19707 7.14613 1.06163 7.01069C0.926189 6.87525 0.850098 6.69155 0.850098 6.5C0.850098 6.30845 0.926189 6.12475 1.06163 5.98931C1.19707 5.85387 1.38077 5.77778 1.57232 5.77778H6.62788V0.722222C6.62788 0.530677 6.70397 0.346977 6.83941 0.211534C6.97485 0.076091 7.15855 0 7.3501 0C7.54164 0 7.72534 0.076091 7.86079 0.211534C7.99623 0.346977 8.07232 0.530677 8.07232 0.722222V5.77778H13.1279C13.3194 5.77778 13.5031 5.85387 13.6386 5.98931C13.774 6.12475 13.8501 6.30845 13.8501 6.5C13.8501 6.69155 13.774 6.87525 13.6386 7.01069C13.5031 7.14613 13.3194 7.22222 13.1279 7.22222H8.07232Z"/></svg>