<svg class="svgicon svgicon-alert" xmlns="http://www.w3.org/2000/svg" width="16" height="14" viewBox="0 0 16 14"><path d="M14.8526 11.1658L9.16836 1.29434C9.02632 1.05249 8.82354 0.851962 8.58012 0.71263C8.3367 0.573298 8.0611 0.5 7.78063 0.5C7.50015 0.5 7.22455 0.573298 6.98113 0.71263C6.73771 0.851962 6.53493 1.05249 6.39289 1.29434L0.708695 11.1658C0.572025 11.3997 0.5 11.6658 0.5 11.9367C0.5 12.2076 0.572025 12.4737 0.708695 12.7076C0.848919 12.9509 1.05135 13.1525 1.29522 13.2917C1.5391 13.431 1.81562 13.5028 2.09643 13.4999H13.4648C13.7454 13.5026 14.0217 13.4306 14.2653 13.2914C14.5089 13.1522 14.7111 12.9507 14.8513 12.7076C14.9881 12.4738 15.0604 12.2078 15.0606 11.9369C15.0608 11.6659 14.989 11.3998 14.8526 11.1658ZM7.26063 5.69999C7.26063 5.56208 7.31542 5.42982 7.41293 5.3323C7.51045 5.23478 7.64271 5.18 7.78063 5.18C7.91854 5.18 8.0508 5.23478 8.14832 5.3323C8.24584 5.42982 8.30062 5.56208 8.30062 5.69999V8.29997C8.30062 8.43788 8.24584 8.57014 8.14832 8.66766C8.0508 8.76518 7.91854 8.81996 7.78063 8.81996C7.64271 8.81996 7.51045 8.76518 7.41293 8.66766C7.31542 8.57014 7.26063 8.43788 7.26063 8.29997V5.69999ZM7.78063 11.4199C7.62636 11.4199 7.47555 11.3742 7.34729 11.2885C7.21902 11.2028 7.11904 11.081 7.06001 10.9384C7.00097 10.7959 6.98552 10.6391 7.01562 10.4878C7.04572 10.3365 7.12 10.1975 7.22909 10.0884C7.33817 9.97932 7.47715 9.90503 7.62846 9.87494C7.77976 9.84484 7.93659 9.86029 8.07912 9.91932C8.22164 9.97836 8.34346 10.0783 8.42917 10.2066C8.51487 10.3349 8.56062 10.4857 8.56062 10.6399C8.56062 10.8468 8.47844 11.0452 8.33216 11.1915C8.18589 11.3378 7.98749 11.4199 7.78063 11.4199Z"/></svg>