<svg class="svgicon svgicon-back" xmlns="http://www.w3.org/2000/svg" width="14" height="24" viewBox="0 0 14 24"><path d="M13.2663 0.469691C13.1178 0.320806 12.9414 0.202681 12.7471 0.122084C12.5529 0.0414866 12.3447 0 12.1344 0C11.9241 0 11.7159 0.0414866 11.5216 0.122084C11.3274 0.202681 11.151 0.320806 11.0025 0.469691L0.374035 11.0981C0.255467 11.2165 0.1614 11.357 0.0972185 11.5117C0.0330367 11.6665 0 11.8323 0 11.9998C0 12.1673 0.0330367 12.3332 0.0972185 12.4879C0.1614 12.6426 0.255467 12.7832 0.374035 12.9015L11.0025 23.53C11.6292 24.1567 12.6396 24.1567 13.2663 23.53C13.893 22.9033 13.893 21.8929 13.2663 21.2661L4.00638 11.9934L13.2791 2.72072C13.893 2.1068 13.893 1.08361 13.2663 0.469691Z"/></svg>