<svg class="svgicon svgicon-log" xmlns="http://www.w3.org/2000/svg" width="16" height="16" viewBox="0 0 16 16"><path d="M0 13.125H6.5625V14.4375H0V13.125ZM0 9.1875H6.5625V10.5H0V9.1875ZM14.4375 6.5625H1.3125C0.964403 6.5625 0.630564 6.42422 0.384422 6.17808C0.138281 5.93194 0 5.5981 0 5.25V1.3125C0 0.964403 0.138281 0.630564 0.384422 0.384422C0.630564 0.138281 0.964403 0 1.3125 0H14.4375C14.7856 0 15.1194 0.138281 15.3656 0.384422C15.6117 0.630564 15.75 0.964403 15.75 1.3125V5.25C15.75 5.5981 15.6117 5.93194 15.3656 6.17808C15.1194 6.42422 14.7856 6.5625 14.4375 6.5625ZM1.3125 1.3125V5.25H14.4375V1.3125H1.3125ZM14.4375 15.75H10.5C10.1519 15.75 9.81806 15.6117 9.57192 15.3656C9.32578 15.1194 9.1875 14.7856 9.1875 14.4375V10.5C9.1875 10.1519 9.32578 9.81806 9.57192 9.57192C9.81806 9.32578 10.1519 9.1875 10.5 9.1875H14.4375C14.7856 9.1875 15.1194 9.32578 15.3656 9.57192C15.6117 9.81806 15.75 10.1519 15.75 10.5V14.4375C15.75 14.7856 15.6117 15.1194 15.3656 15.3656C15.1194 15.6117 14.7856 15.75 14.4375 15.75ZM10.5 10.5V14.4375H14.4375V10.5H10.5Z"/></svg>