<svg class="svgicon svgicon-lfleet" xmlns="http://www.w3.org/2000/svg" width="18" height="18" viewBox="0 0 18 18"><path fill-rule="evenodd" clip-rule="evenodd" d="M0 0.964286C0 0.431725 0.431725 0 0.964286 0H6.10714C6.53768 0 6.91605 0.285407 7.03433 0.699376L8.32004 5.19938C8.43524 5.60258 8.27666 6.03401 7.92775 6.26662L6.4783 7.23292C6.64342 8.07458 7.2124 9.06298 8.07471 9.92529C8.93702 10.7876 9.92542 11.3566 10.7671 11.5217L11.7334 10.0723C11.966 9.72334 12.3974 9.56476 12.8006 9.67996L17.3006 10.9657C17.7146 11.084 18 11.4623 18 11.8929V17.0357C18 17.5683 17.5683 18 17.0357 18C11.4375 18 7.12354 16.6837 4.21993 13.7801C1.31632 10.8765 0 6.56247 0 0.964286ZM1.94276 1.92857C2.08711 6.74698 3.33112 10.1638 5.58364 12.4164C7.83616 14.6689 11.253 15.9129 16.0714 16.0572V12.6202L12.9476 11.7277L12.0523 13.0706C11.8735 13.3389 11.5724 13.5 11.25 13.5C9.60474 13.5 7.92709 12.5051 6.711 11.289C5.49492 10.0729 4.5 8.39526 4.5 6.75C4.5 6.42759 4.66113 6.12651 4.9294 5.94767L6.2723 5.0524L5.37978 1.92857H1.94276ZM10.2857 0.964286C10.2857 0.431725 10.7174 0 11.25 0C14.9968 0 18 3.00315 18 6.75C18 7.28256 17.5683 7.71429 17.0357 7.71429C16.5032 7.71429 16.0714 7.28256 16.0714 6.75C16.0714 4.06827 13.9317 1.92857 11.25 1.92857C10.7174 1.92857 10.2857 1.49685 10.2857 0.964286ZM10.2857 4.17857C10.2857 3.64601 10.7174 3.21429 11.25 3.21429C12.2065 3.21429 13.0822 3.68281 13.6997 4.30029C14.3172 4.91777 14.7857 5.79353 14.7857 6.75C14.7857 7.28256 14.354 7.71429 13.8214 7.71429C13.2889 7.71429 12.8571 7.28256 12.8571 6.75C12.8571 6.42076 12.6828 6.0108 12.336 5.664C11.9892 5.31719 11.5792 5.14286 11.25 5.14286C10.7174 5.14286 10.2857 4.71113 10.2857 4.17857Z"/></svg>