<svg class="svgicon svgicon-gfleet" xmlns="http://www.w3.org/2000/svg" width="18" height="16" viewBox="0 0 18 16"><path d="M10.5704 5.37718L16.9389 1.70028L18 3.53809L11.6315 7.21499L10.5704 5.37718Z"/><path d="M13.5564 7.23597C13.7349 8.55575 13.4457 9.89636 12.7389 11.0251C12.0322 12.1539 10.9525 12.9996 9.68728 13.4155C8.42208 13.8314 7.05121 13.7911 5.81258 13.3017C4.57396 12.8124 3.54576 11.9048 2.90643 10.7365C2.2671 9.5682 2.057 8.21292 2.31259 6.90589C2.56818 5.59885 3.27332 4.42255 4.30565 3.58114C5.33797 2.73972 6.63231 2.2863 7.96404 2.29957C9.29576 2.31284 10.5808 2.79196 11.5962 3.65377L13.619 2.48606C12.3396 1.16507 10.6407 0.330083 8.81325 0.124149C6.98584 -0.0817862 5.14369 0.354151 3.6024 1.35727C2.06111 2.3604 0.916609 3.86827 0.36498 5.62256C-0.18665 7.37686 -0.111075 9.26838 0.578756 10.9731C1.26859 12.6778 2.52974 14.0895 4.14615 14.9665C5.76256 15.8434 7.63362 16.131 9.43877 15.7799C11.2439 15.4289 12.8708 14.461 14.0407 13.0421C15.2106 11.6233 15.8508 9.84177 15.8514 8.00279C15.8486 7.34716 15.7652 6.69436 15.6032 6.05907L13.5564 7.23597Z"/></svg>