<svg class="svgicon svgicon-faq" xmlns="http://www.w3.org/2000/svg" width="18" height="18" viewBox="0 0 18 18"><path fill-rule="evenodd" clip-rule="evenodd" d="M2.25 0C1.65326 0 1.08097 0.237053 0.65901 0.65901C0.237053 1.08097 0 1.65326 0 2.25L0 13.5675L1.44 12.1275L3.16125 10.4062H4.5V12.375C4.5 12.9717 4.73705 13.544 5.15901 13.966C5.58097 14.3879 6.15326 14.625 6.75 14.625H14.625L16.3125 16.3125L18 18V6.75C18 6.15326 17.7629 5.58097 17.341 5.15901C16.919 4.73705 16.3467 4.5 15.75 4.5H13.5V2.25C13.5 1.65326 13.2629 1.08097 12.841 0.65901C12.419 0.237053 11.8467 0 11.25 0L2.25 0ZM11.8125 4.5V2.25C11.8125 2.10082 11.7532 1.95774 11.6477 1.85225C11.5423 1.74676 11.3992 1.6875 11.25 1.6875H2.25C2.10082 1.6875 1.95774 1.74676 1.85225 1.85225C1.74676 1.95774 1.6875 2.10082 1.6875 2.25V9.495L2.21625 8.96625L2.46375 8.71875H4.5V6.75C4.5 6.15326 4.73705 5.58097 5.15901 5.15901C5.58097 4.73705 6.15326 4.5 6.75 4.5H11.8125ZM15.8175 13.4325L16.3125 13.9264V6.75C16.3125 6.60082 16.2532 6.45774 16.1477 6.35225C16.0423 6.24676 15.8992 6.1875 15.75 6.1875H6.75C6.60082 6.1875 6.45774 6.24676 6.35225 6.35225C6.24676 6.45774 6.1875 6.60082 6.1875 6.75V12.375C6.1875 12.5242 6.24676 12.6673 6.35225 12.7727C6.45774 12.8782 6.60082 12.9375 6.75 12.9375H15.3236L15.8175 13.4325Z"/></svg>