<svg class="svgicon svgicon-lfleet" xmlns="http://www.w3.org/2000/svg" width="18" height="16" viewBox="0 0 18 16"><path d="M12.3875 0.350372C12.8888 0.350389 13.3802 0.489986 13.8067 0.753525C14.2332 1.01706 14.5778 1.39413 14.8021 1.8425L16.0467 4.33088C16.2663 4.24088 16.485 4.14999 16.6974 4.04469C16.911 3.938 17.1583 3.92054 17.3848 3.99615C17.6113 4.07176 17.7984 4.23425 17.9051 4.44787C18.0118 4.66149 18.0293 4.90875 17.9537 5.13524C17.8781 5.36174 17.7156 5.54892 17.5019 5.65561C17.0574 5.877 16.854 5.9454 16.854 5.9454L17.7143 7.66701C17.9024 8.0423 17.9996 8.45538 17.9996 8.87476V11.1498C18.0002 11.5298 17.9203 11.9055 17.7652 12.2524C17.61 12.5992 17.3832 12.9093 17.0997 13.1621V14.2997C17.0997 14.6577 16.9574 15.0011 16.7043 15.2542C16.4511 15.5074 16.1078 15.6496 15.7497 15.6496C15.3917 15.6496 15.0483 15.5074 14.7952 15.2542C14.542 15.0011 14.3998 14.6577 14.3998 14.2997V13.8497H3.60033V14.2997C3.60033 14.6577 3.4581 15.0011 3.20494 15.2542C2.95178 15.5074 2.60842 15.6496 2.2504 15.6496C1.89237 15.6496 1.54901 15.5074 1.29585 15.2542C1.04269 15.0011 0.900461 14.6577 0.900461 14.2997V13.1621C0.347888 12.6672 0.00050519 11.949 0.00050519 11.1498V8.87476C0.000673373 8.45579 0.0983449 8.04261 0.285791 7.66791L1.14615 5.9454C0.928171 5.855 0.712701 5.75867 0.499981 5.65651C0.393902 5.60388 0.299253 5.53084 0.221457 5.44156C0.143662 5.35228 0.0842507 5.24853 0.0466286 5.13625C0.00900638 5.02397 -0.00608685 4.90536 0.00221378 4.78724C0.0105144 4.66911 0.0420457 4.55379 0.0950006 4.44787C0.204048 4.23536 0.392289 4.07425 0.61909 3.99933C0.84589 3.9244 1.09306 3.94166 1.30724 4.04739C1.51873 4.14999 1.73562 4.24268 1.95341 4.33088L3.19805 1.8425C3.42231 1.39413 3.76697 1.01706 4.19343 0.753525C4.61989 0.489986 5.11131 0.350389 5.61263 0.350372H12.3875ZM15.1504 6.56367C13.6204 7.04695 11.4434 7.55002 9.00007 7.55002C6.55668 7.55002 4.37969 7.04605 2.84977 6.56367L1.89581 8.47158C1.83309 8.59672 1.80043 8.73477 1.80042 8.87476V11.1498C1.80042 11.3885 1.89523 11.6174 2.06401 11.7862C2.23278 11.955 2.46169 12.0498 2.70037 12.0498H15.2998C15.5384 12.0498 15.7673 11.955 15.9361 11.7862C16.1049 11.6174 16.1997 11.3885 16.1997 11.1498V8.87476C16.1996 8.73508 16.1669 8.59735 16.1043 8.47248L15.1504 6.56367ZM4.95026 8.44998C5.30829 8.44998 5.65165 8.5922 5.90481 8.84536C6.15797 9.09852 6.3002 9.44188 6.3002 9.79991C6.3002 10.1579 6.15797 10.5013 5.90481 10.7545C5.65165 11.0076 5.30829 11.1498 4.95026 11.1498C4.59224 11.1498 4.24888 11.0076 3.99572 10.7545C3.74255 10.5013 3.60033 10.1579 3.60033 9.79991C3.60033 9.44188 3.74255 9.09852 3.99572 8.84536C4.24888 8.5922 4.59224 8.44998 4.95026 8.44998ZM13.0499 8.44998C13.4079 8.44998 13.7513 8.5922 14.0044 8.84536C14.2576 9.09852 14.3998 9.44188 14.3998 9.79991C14.3998 10.1579 14.2576 10.5013 14.0044 10.7545C13.7513 11.0076 13.4079 11.1498 13.0499 11.1498C12.6918 11.1498 12.3485 11.0076 12.0953 10.7545C11.8422 10.5013 11.6999 10.1579 11.6999 9.79991C11.6999 9.44188 11.8422 9.09852 12.0953 8.84536C12.3485 8.5922 12.6918 8.44998 13.0499 8.44998ZM12.3875 2.15028H5.61263C5.44554 2.15037 5.28178 2.19698 5.13968 2.28487C4.99758 2.37277 4.88276 2.49849 4.80807 2.64796L3.66513 4.93115C5.05826 5.34963 6.93557 5.75011 9.00007 5.75011C11.0646 5.75011 12.9419 5.34963 14.3341 4.93115L13.1921 2.64796C13.1174 2.49849 13.0025 2.37277 12.8604 2.28487C12.7184 2.19698 12.5546 2.15037 12.3875 2.15028Z"/></svg>