<svg class="svgicon svgicon-home" xmlns="http://www.w3.org/2000/svg" width="18" height="20" viewBox="0 0 18 20"><path fill-rule="evenodd" clip-rule="evenodd" d="M8.44745 0.289589C8.77245 0.0368118 9.22755 0.0368118 9.55255 0.289589L17.6525 6.58959C17.8718 6.7601 18 7.02227 18 7.30001V17.2C18 17.9161 17.7155 18.6028 17.2092 19.1092C16.7028 19.6155 16.0161 19.9 15.3 19.9H2.7C1.98391 19.9 1.29716 19.6155 0.790812 19.1092C0.284463 18.6028 0 17.9161 0 17.2V7.30001C0 7.02227 0.128226 6.7601 0.347453 6.58959L8.44745 0.289589ZM1.8 7.74018V17.2C1.8 17.4387 1.89482 17.6676 2.0636 17.8364C2.23239 18.0052 2.46131 18.1 2.7 18.1H15.3C15.5387 18.1 15.7676 18.0052 15.9364 17.8364C16.1052 17.6676 16.2 17.4387 16.2 17.2V7.74018L9 2.14018L1.8 7.74018Z"/><path fill-rule="evenodd" clip-rule="evenodd" d="M5.4 10C5.4 9.50295 5.80294 9.10001 6.3 9.10001H11.7C12.1971 9.10001 12.6 9.50295 12.6 10V19C12.6 19.4971 12.1971 19.9 11.7 19.9C11.2029 19.9 10.8 19.4971 10.8 19V10.9H7.2V19C7.2 19.4971 6.79706 19.9 6.3 19.9C5.80294 19.9 5.4 19.4971 5.4 19V10Z"/></svg>