<svg class="svgicon svgicon-right" xmlns="http://www.w3.org/2000/svg" width="23" height="18" viewBox="0 0 23 18"><path d="M15.3344 0.552831L22.4481 7.66651C22.8013 8.02018 22.9997 8.4996 22.9997 8.99946C22.9997 9.49932 22.8013 9.97874 22.4481 10.3324L15.3357 17.4474C14.9818 17.8012 14.5019 18 14.0015 18C13.501 18 13.0211 17.8012 12.6672 17.4474C12.3134 17.0935 12.1146 16.6136 12.1146 16.1131C12.1146 15.6127 12.3134 15.1328 12.6672 14.7789L16.5605 10.8857H2.0552C1.55493 10.8857 1.07516 10.687 0.721416 10.3332C0.367675 9.9795 0.168945 9.49973 0.168945 8.99946C0.168945 8.4992 0.367675 8.01942 0.721416 7.66568C1.07516 7.31194 1.55493 7.11321 2.0552 7.11321H16.5605L12.6685 3.21999C12.3148 2.86614 12.1162 2.38627 12.1163 1.88597C12.1164 1.38566 12.3153 0.90589 12.6691 0.552202C13.023 0.198515 13.5028 -0.000117857 14.0032 5.2464e-08C14.5035 0.000117962 14.9832 0.198977 15.3369 0.552831H15.3344Z"/></svg>