<svg class="svgicon svgicon-select" xmlns="http://www.w3.org/2000/svg" width="21" height="14" viewBox="0 0 21 14"><path d="M1.33531 3.56343C1.11231 3.28709 0.972051 2.95329 0.930745 2.6006C0.889438 2.24792 0.948768 1.89074 1.10188 1.57035C1.25499 1.24996 1.49563 0.979435 1.79599 0.79003C2.09636 0.600625 2.44418 0.500076 2.79928 0.5H18.6188C18.9739 0.500076 19.3218 0.600625 19.6221 0.79003C19.9225 0.979435 20.1631 1.24996 20.3162 1.57035C20.4693 1.89074 20.5287 2.24792 20.4874 2.6006C20.4461 2.95329 20.3058 3.28709 20.0828 3.56343L12.9041 12.4508C12.6395 12.7784 12.305 13.0427 11.925 13.2242C11.545 13.4058 11.1292 13.5 10.7081 13.5C10.287 13.5 9.87121 13.4058 9.49124 13.2242C9.11126 13.0427 8.77673 12.7784 8.51216 12.4508L1.33531 3.56343ZM18.6188 2.38171H2.79928L9.97613 11.269C10.0643 11.3782 10.1758 11.4663 10.3025 11.5269C10.4291 11.5874 10.5677 11.6188 10.7081 11.6188C10.8485 11.6188 10.9871 11.5874 11.1137 11.5269C11.2404 11.4663 11.3519 11.3782 11.4401 11.269L18.6188 2.38171Z"/></svg>