<svg class="svgicon svgicon-tooltip" xmlns="http://www.w3.org/2000/svg" width="22" height="22" viewBox="0 0 22 22"><path fill-rule="evenodd" clip-rule="evenodd" d="M10.7368 0.5C4.93795 0.5 0.236816 5.20114 0.236816 11C0.236816 16.7989 4.93795 21.5 10.7368 21.5C16.5357 21.5 21.2368 16.7989 21.2368 11C21.2368 5.20114 16.5357 0.5 10.7368 0.5ZM10.2595 5.27273C10.0064 5.27273 9.76359 5.3733 9.58458 5.55231C9.40557 5.73132 9.305 5.97411 9.305 6.22727C9.305 6.48043 9.40557 6.72323 9.58458 6.90224C9.76359 7.08125 10.0064 7.18182 10.2595 7.18182H10.7368C10.99 7.18182 11.2328 7.08125 11.4118 6.90224C11.5908 6.72323 11.6914 6.48043 11.6914 6.22727C11.6914 5.97411 11.5908 5.73132 11.4118 5.55231C11.2328 5.3733 10.99 5.27273 10.7368 5.27273H10.2595ZM8.82773 9.09091C8.57456 9.09091 8.33177 9.19148 8.15276 9.37049C7.97375 9.5495 7.87318 9.79229 7.87318 10.0455C7.87318 10.2986 7.97375 10.5414 8.15276 10.7204C8.33177 10.8994 8.57456 11 8.82773 11H9.78227V13.8636H8.82773C8.57456 13.8636 8.33177 13.9642 8.15276 14.1432C7.97375 14.3222 7.87318 14.565 7.87318 14.8182C7.87318 15.0713 7.97375 15.3141 8.15276 15.4931C8.33177 15.6722 8.57456 15.7727 8.82773 15.7727H12.6459C12.8991 15.7727 13.1419 15.6722 13.3209 15.4931C13.4999 15.3141 13.6005 15.0713 13.6005 14.8182C13.6005 14.565 13.4999 14.3222 13.3209 14.1432C13.1419 13.9642 12.8991 13.8636 12.6459 13.8636H11.6914V10.0455C11.6914 9.79229 11.5908 9.5495 11.4118 9.37049C11.2328 9.19148 10.99 9.09091 10.7368 9.09091H8.82773Z"/></svg>